# xmcd
#
# Track frame offsets: 
#        150
#        18679
#        36969
#        56557
#        76041
#        94528
#        116281
#        120933
#        143513
#        167638
#        187861
#        209318
#        225688
#        243406
#
# Disc length: 3333 seconds
#
# Revision: 3
# Processed by: cddbd v1.5.2PL0 Copyright (c) Steve Scherf et al.
# Submitted via: ExactAudioCopy v0.99pb4
#
DISCID=a40d030e
DTITLE=Robbie Williams - Reality Killed the Video Star
DYEAR=2009
DGENRE=Rock
TTITLE0=Morning sun
TTITLE1=Bodies
TTITLE2=You know me
TTITLE3=Blasphemy
TTITLE4=Do you mind
TTITLE5=Last days of disco
TTITLE6=Somewhere
TTITLE7=Deceptacon
TTITLE8=Starstruck
TTITLE9=Difficult for weirdos
TTITLE10=Superblind
TTITLE11=Won't do that
TTITLE12=Morning sun (Reprise)
TTITLE13=Data Track
EXTD=
EXTT0=
EXTT1=
EXTT2=
EXTT3=
EXTT4=
EXTT5=
EXTT6=
EXTT7=
EXTT8=
EXTT9=
EXTT10=
EXTT11=
EXTT12=
EXTT13=
PLAYORDER=
